<svg width="45" height="52" viewBox="0 0 45 52" fill="none" xmlns="http://www.w3.org/2000/svg">
<path d="M36.8294 28.7342H35.1598L30.2493 33.9009H34.9389L39.2847 39.0676H4.91059L9.28102 33.9009H14.3144L9.40379 28.7342H7.36589L0 36.4842L0 46.8176C0 49.6592 2.18521 51.9842 4.88604 51.9842H39.2847C41.9856 51.9842 44.1953 49.6851 44.1953 46.8176V36.4842L36.8294 28.7342ZM34.3742 15.6884L22.2204 28.4759L13.5287 19.3309L25.6824 6.54339L34.3742 15.6884ZM23.9637 1.06673L8.32345 17.5226C7.36589 18.5301 7.36589 20.1576 8.32345 21.1651L20.4772 33.9526C21.4347 34.9601 22.9816 34.9601 23.9391 33.9526L39.5548 17.5226C40.5124 16.5151 40.5124 14.8876 39.5548 13.8801L27.4011 1.09256C26.4681 0.059227 24.9213 0.0592271 23.9637 1.06673Z" fill="white"/>
</svg>
