<svg width="59" height="62" viewBox="0 0 59 62" fill="none" xmlns="http://www.w3.org/2000/svg">
<g clip-path="url(#clip0)">
<path d="M22.0976 33.5833C27.5216 33.5833 31.9187 28.9569 31.9187 23.25C31.9187 17.5431 27.5216 12.9167 22.0976 12.9167C16.6735 12.9167 12.2764 17.5431 12.2764 23.25C12.2764 28.9569 16.6735 33.5833 22.0976 33.5833Z" fill="white"/>
<path d="M22.0977 38.75C15.5421 38.75 2.45532 42.2117 2.45532 49.0833V54.25H41.7401V49.0833C41.7401 42.2117 28.6533 38.75 22.0977 38.75ZM41.1508 13.8467L37.0259 18.2125C39.0883 21.2608 39.0883 25.2133 37.0259 28.2617L41.1508 32.6275C46.1105 27.4092 46.1105 19.53 41.1508 13.8467ZM49.2778 5.16667L45.2757 9.3775C52.0769 17.1792 52.0769 28.9075 45.2757 37.1225L49.2778 41.3333C58.8535 31.2842 58.878 15.6292 49.2778 5.16667Z" fill="white"/>
</g>
<defs>
<clipPath id="clip0">
<rect width="58.9271" height="62" fill="white"/>
</clipPath>
</defs>
</svg>
